<svg xmlns="http://www.w3.org/2000/svg" width="805" height="600"><rect width="805" height="600" x="0" y="0" fill="#ffffff" id="background"/><g transform="translate(10,10)" id="viz"><g id="arcs"><path d="M24.86190426597633,290A46.159877437395686,46.159877437395686 0,0,1 117.1816591407677,290" fill="none" stroke="gray" stroke-width="30" opacity="0.5"/><path d="M68.45273383636018,290A21.795414785191923,21.795414785191923 0,0,1 24.86190426597633,290" fill="none" stroke="gray" stroke-width="30" opacity="0.5"/><path d="M239.70005012860932,290A21.79541478519191,21.79541478519191 0,0,1 283.29087969899314,290" fill="none" stroke="gray" stroke-width="30" opacity="0.5"/><path d="M326.88170926937704,290A24.36446265220374,24.36446265220374 0,0,1 375.6106345737845,290" fill="none" stroke="gray" stroke-width="30" opacity="0.5"/><path d="M498.1290255616261,290A24.36446265220377,24.36446265220377 0,0,1 546.8579508660337,290" fill="none" stroke="gray" stroke-width="30" opacity="0.5"/><path d="M595.5868761704412,290A24.36446265220377,24.36446265220377 0,0,1 546.8579508660337,290" fill="none" stroke="gray" stroke-width="30" opacity="0.5"/><path d="M546.8579508660337,290A131.78353558352026,131.78353558352026 0,0,1 283.29087969899314,290" fill="none" stroke="gray" stroke-width="30" opacity="0.5"/><path d="M424.33955987819206,290A24.36446265220377,24.36446265220377 0,0,1 375.6106345737845,290" fill="none" stroke="gray" stroke-width="30" opacity="0.5"/><path d="M165.91058444517523,290A24.364462652203763,24.364462652203763 0,0,1 117.1816591407677,290" fill="none" stroke="gray" stroke-width="30" opacity="0.5"/><path d="M375.6106345737845,290A42.811829073062285,42.811829073062285 0,0,1 461.2342927199091,290" fill="none" stroke="gray" stroke-width="30" opacity="0.5"/><path d="M632.4816090121583,290A24.36446265220377,24.36446265220377 0,0,1 681.2105343165658,290" fill="none" stroke="gray" stroke-width="30" opacity="0.5"/><path d="M729.9394596209734,290A24.36446265220377,24.36446265220377 0,0,1 681.2105343165658,290" fill="none" stroke="gray" stroke-width="30" opacity="0.5"/><path d="M202.8053172868923,290A42.81182907306229,42.81182907306229 0,0,1 117.1816591407677,290" fill="none" stroke="gray" stroke-width="30" opacity="0.5"/><path d="M681.2105343165658,290A42.81182907306231,42.81182907306231 0,0,1 766.8341924626905,290" fill="none" stroke="gray" stroke-width="30" opacity="0.5"/></g><g id="nodes"><g><circle cx="24.86190426597633" cy="290" r="24.86190426597633"/><text transform="translate(24.86190426597633,319.8619042659763) rotate(-90)" alignment-baseline="middle" font-family="Helvetica, Arial, sans-serif" font-size="12" text-anchor="end">Author</text></g><g><circle cx="68.45273383636018" cy="290" r="18.165807537309522"/><text transform="translate(68.45273383636018,313.16580753730955) rotate(-90)" alignment-baseline="middle" font-family="Helvetica, Arial, sans-serif" font-size="12" text-anchor="end">Ironist</text></g><g><circle cx="117.1816591407677" cy="290" r="30"/><text transform="translate(117.1816591407677,325) rotate(-90)" alignment-baseline="middle" font-family="Helvetica, Arial, sans-serif" font-size="12" text-anchor="end">Actor</text></g><g><circle cx="165.91058444517523" cy="290" r="18.165807537309522"/><text transform="translate(165.91058444517523,313.16580753730955) rotate(-90)" alignment-baseline="middle" font-family="Helvetica, Arial, sans-serif" font-size="12" text-anchor="end">Performer</text></g><g><circle cx="202.8053172868923" cy="290" r="18.165807537309522"/><text transform="translate(202.8053172868923,313.16580753730955) rotate(-90)" alignment-baseline="middle" font-family="Helvetica, Arial, sans-serif" font-size="12" text-anchor="end">Interpreter</text></g><g><circle cx="239.70005012860932" cy="290" r="18.165807537309522"/><text transform="translate(239.70005012860932,313.16580753730955) rotate(-90)" alignment-baseline="middle" font-family="Helvetica, Arial, sans-serif" font-size="12" text-anchor="end">Sincerity</text></g><g><circle cx="283.29087969899314" cy="290" r="24.86190426597633"/><text transform="translate(283.29087969899314,319.8619042659763) rotate(-90)" alignment-baseline="middle" font-family="Helvetica, Arial, sans-serif" font-size="12" text-anchor="end">CreativeIdea</text></g><g><circle cx="326.88170926937704" cy="290" r="18.165807537309522"/><text transform="translate(326.88170926937704,313.16580753730955) rotate(-90)" alignment-baseline="middle" font-family="Helvetica, Arial, sans-serif" font-size="12" text-anchor="end">Song</text></g><g><circle cx="375.6106345737845" cy="290" r="30"/><text transform="translate(375.6106345737845,325) rotate(-90)" alignment-baseline="middle" font-family="Helvetica, Arial, sans-serif" font-size="12" text-anchor="end">LyricalWork</text></g><g><circle cx="424.33955987819206" cy="290" r="18.165807537309522"/><text transform="translate(424.33955987819206,313.16580753730955) rotate(-90)" alignment-baseline="middle" font-family="Helvetica, Arial, sans-serif" font-size="12" text-anchor="end">Poem</text></g><g><circle cx="461.2342927199091" cy="290" r="18.165807537309522"/><text transform="translate(461.2342927199091,313.16580753730955) rotate(-90)" alignment-baseline="middle" font-family="Helvetica, Arial, sans-serif" font-size="12" text-anchor="end">CreativeWork</text></g><g><circle cx="498.1290255616261" cy="290" r="18.165807537309522"/><text transform="translate(498.1290255616261,313.16580753730955) rotate(-90)" alignment-baseline="middle" font-family="Helvetica, Arial, sans-serif" font-size="12" text-anchor="end">VerbalIrony</text></g><g><circle cx="546.8579508660337" cy="290" r="30"/><text transform="translate(546.8579508660337,325) rotate(-90)" alignment-baseline="middle" font-family="Helvetica, Arial, sans-serif" font-size="12" text-anchor="end">Irony</text></g><g><circle cx="595.5868761704412" cy="290" r="18.165807537309522"/><text transform="translate(595.5868761704412,313.16580753730955) rotate(-90)" alignment-baseline="middle" font-family="Helvetica, Arial, sans-serif" font-size="12" text-anchor="end">SituationalIrony</text></g><g><circle cx="632.4816090121583" cy="290" r="18.165807537309522"/><text transform="translate(632.4816090121583,313.16580753730955) rotate(-90)" alignment-baseline="middle" font-family="Helvetica, Arial, sans-serif" font-size="12" text-anchor="end">IronicEvent</text></g><g><circle cx="681.2105343165658" cy="290" r="30"/><text transform="translate(681.2105343165658,325) rotate(-90)" alignment-baseline="middle" font-family="Helvetica, Arial, sans-serif" font-size="12" text-anchor="end">CreativeEvent</text></g><g><circle cx="729.9394596209734" cy="290" r="18.165807537309522"/><text transform="translate(729.9394596209734,313.16580753730955) rotate(-90)" alignment-baseline="middle" font-family="Helvetica, Arial, sans-serif" font-size="12" text-anchor="end">SincereEvent</text></g><g><circle cx="766.8341924626905" cy="290" r="18.165807537309522"/><text transform="translate(766.8341924626905,313.16580753730955) rotate(-90)" alignment-baseline="middle" font-family="Helvetica, Arial, sans-serif" font-size="12" text-anchor="end">Event</text></g></g></g></svg>